<svg width="345" height="302" viewBox="0 0 345 302" fill="none" xmlns="http://www.w3.org/2000/svg">
<path fill-rule="evenodd" clip-rule="evenodd" d="M345 44L282.179 111.5L345 179H10C4.47715 179 0 174.523 0 169V54C0 48.4772 4.47715 44 10 44H345Z" fill="#CFE3F2"/>
<path fill-rule="evenodd" clip-rule="evenodd" d="M104.643 44.6429H149.286V89.2857V133.929V178.571H104.643L104.643 133.929H60V89.2857H104.643V44.6429ZM193.929 89.2857H149.286V133.929H193.929V89.2857Z" fill="#E49629"/>
<path fill-rule="evenodd" clip-rule="evenodd" d="M104.643 44.6429H149.286V89.2857V133.929V178.571H104.643L104.643 133.929H60V89.2857H104.643V44.6429ZM193.929 89.2857H149.286V133.929H193.929V89.2857Z" fill="#E49629"/>
<path fill-rule="evenodd" clip-rule="evenodd" d="M104.643 44.6429H149.286V89.2857V133.929V178.571H104.643L104.643 133.929H60V89.2857H104.643V44.6429ZM193.929 89.2857H149.286V133.929H193.929V89.2857Z" fill="#206DB1"/>
<path fill-rule="evenodd" clip-rule="evenodd" d="M134.643 0C118.074 0 104.643 13.4315 104.643 30V44.6429H149.286V0H134.643ZM149.286 0H193.929V44.6429H149.286V0ZM193.929 178.571H149.286L104.643 178.571V193.214C104.643 209.783 118.074 223.214 134.643 223.214L149.286 223.214H193.929V178.571ZM260 156.244C260 139.093 253.552 123.449 242.949 111.601C253.552 99.7541 260 84.1092 260 66.9585C260 30.2732 230.5 0.477894 193.929 0V44.6546C205.842 45.1232 215.357 54.9297 215.357 66.9585C215.357 78.9872 205.842 88.7937 193.929 89.2623V89.2857V133.917V133.94C205.842 134.409 215.357 144.215 215.357 156.244C215.357 168.273 205.842 178.079 193.929 178.548V223.203C230.5 222.725 260 192.929 260 156.244Z" fill="#34AAE6"/>
<path d="M19.7578 251.781C21.8438 251.781 23.8008 252.051 25.6289 252.59C27.4805 253.129 29.0859 253.938 30.4453 255.016C31.8281 256.094 32.9062 257.441 33.6797 259.059C34.4766 260.652 34.875 262.516 34.875 264.648C34.875 265.75 34.7227 266.758 34.418 267.672C34.1367 268.562 33.7617 269.371 33.293 270.098C32.8477 270.824 32.3438 271.457 31.7812 271.996C31.2422 272.535 30.7148 273.004 30.1992 273.402C29.6836 273.777 29.2266 274.082 28.8281 274.316C28.4297 274.527 28.1484 274.656 27.9844 274.703C29.3906 275.102 30.5742 275.617 31.5352 276.25C32.4961 276.859 33.293 277.539 33.9258 278.289C34.582 279.016 35.0859 279.777 35.4375 280.574C35.8125 281.348 36.082 282.109 36.2461 282.859C36.4336 283.586 36.5391 284.266 36.5625 284.898C36.6094 285.508 36.6328 286 36.6328 286.375C36.6328 288.203 36.4102 289.82 35.9648 291.227C35.5195 292.609 34.9336 293.816 34.207 294.848C33.4805 295.855 32.6484 296.723 31.7109 297.449C30.7734 298.152 29.8242 298.727 28.8633 299.172C26.5664 300.25 23.9766 300.859 21.0938 301H9.5625C8.22656 301 7.19531 300.777 6.46875 300.332C5.74219 299.863 5.21484 299.254 4.88672 298.504C4.55859 297.73 4.35938 296.863 4.28906 295.902C4.24219 294.941 4.21875 293.945 4.21875 292.914V259.797C4.21875 258.789 4.24219 257.805 4.28906 256.844C4.35938 255.883 4.55859 255.027 4.88672 254.277C5.21484 253.527 5.74219 252.93 6.46875 252.484C7.19531 252.016 8.22656 251.781 9.5625 251.781H19.7578ZM14.9062 279.484V292.703H20.0391C21.1406 292.656 22.125 292.398 22.9922 291.93C23.3672 291.742 23.7305 291.496 24.082 291.191C24.4336 290.887 24.75 290.512 25.0312 290.066C25.3125 289.598 25.5352 289.07 25.6992 288.484C25.8633 287.875 25.9453 287.172 25.9453 286.375C25.9453 285.508 25.8516 284.758 25.6641 284.125C25.5 283.469 25.2656 282.906 24.9609 282.438C24.6797 281.945 24.3516 281.535 23.9766 281.207C23.6016 280.855 23.2266 280.574 22.8516 280.363C21.9375 279.871 20.9062 279.578 19.7578 279.484H14.9062ZM14.9062 260.078V272.031H19.4062C20.4141 271.984 21.3164 271.75 22.1133 271.328C22.4414 271.164 22.7695 270.941 23.0977 270.66C23.4258 270.379 23.7188 270.051 23.9766 269.676C24.2344 269.277 24.4336 268.809 24.5742 268.27C24.7383 267.73 24.8203 267.109 24.8203 266.406C24.8203 265.609 24.7383 264.918 24.5742 264.332C24.4102 263.723 24.1875 263.207 23.9062 262.785C23.6484 262.34 23.3438 261.965 22.9922 261.66C22.6641 261.355 22.3242 261.098 21.9727 260.887C21.1289 260.441 20.1797 260.172 19.125 260.078H14.9062ZM42.4688 265.703C42.4688 263.453 42.7969 261.543 43.4531 259.973C44.1094 258.379 44.9414 257.055 45.9492 256C46.9805 254.945 48.1055 254.125 49.3242 253.539C50.5664 252.93 51.7617 252.473 52.9102 252.168C54.082 251.863 55.1367 251.676 56.0742 251.605C57.0117 251.535 57.7031 251.5 58.1484 251.5H59.3438C59.7891 251.5 60.4805 251.535 61.418 251.605C62.3555 251.676 63.3984 251.863 64.5469 252.168C65.6953 252.473 66.8789 252.93 68.0977 253.539C69.3398 254.125 70.4531 254.945 71.4375 256C72.4453 257.055 73.2656 258.379 73.8984 259.973C74.5547 261.543 74.8828 263.453 74.8828 265.703V286.727C74.8828 289.047 74.5547 291.016 73.8984 292.633C73.2656 294.25 72.4453 295.598 71.4375 296.676C70.4531 297.754 69.3398 298.609 68.0977 299.242C66.8789 299.852 65.6953 300.309 64.5469 300.613C63.3984 300.918 62.3555 301.105 61.418 301.176C60.4805 301.246 59.7891 301.281 59.3438 301.281H58.1484C57.7031 301.281 57.0117 301.246 56.0742 301.176C55.1367 301.105 54.082 300.918 52.9102 300.613C51.7617 300.309 50.5664 299.852 49.3242 299.242C48.1055 298.609 46.9805 297.754 45.9492 296.676C44.9414 295.598 44.1094 294.25 43.4531 292.633C42.7969 291.016 42.4688 289.047 42.4688 286.727V265.703ZM54.1406 288.062C54.1875 288.93 54.3867 289.691 54.7383 290.348C55.043 290.934 55.5 291.461 56.1094 291.93C56.7422 292.398 57.6328 292.633 58.7812 292.633C59.9062 292.633 60.7734 292.398 61.3828 291.93C61.9922 291.461 62.4492 290.934 62.7539 290.348C63.082 289.691 63.2812 288.93 63.3516 288.062V265.141C63.2812 264.297 63.082 263.535 62.7539 262.855C62.4492 262.293 61.9922 261.777 61.3828 261.309C60.7734 260.816 59.9062 260.57 58.7812 260.57C57.6328 260.57 56.7422 260.816 56.1094 261.309C55.5 261.777 55.043 262.293 54.7383 262.855C54.3867 263.535 54.1875 264.297 54.1406 265.141V288.062ZM82.125 265.703C82.125 263.453 82.4531 261.543 83.1094 259.973C83.7656 258.379 84.5977 257.055 85.6055 256C86.6367 254.945 87.7617 254.125 88.9805 253.539C90.2227 252.93 91.418 252.473 92.5664 252.168C93.7383 251.863 94.793 251.676 95.7305 251.605C96.668 251.535 97.3594 251.5 97.8047 251.5H99C99.4453 251.5 100.137 251.535 101.074 251.605C102.012 251.676 103.055 251.863 104.203 252.168C105.352 252.473 106.535 252.93 107.754 253.539C108.996 254.125 110.109 254.945 111.094 256C112.102 257.055 112.922 258.379 113.555 259.973C114.211 261.543 114.539 263.453 114.539 265.703V286.727C114.539 289.047 114.211 291.016 113.555 292.633C112.922 294.25 112.102 295.598 111.094 296.676C110.109 297.754 108.996 298.609 107.754 299.242C106.535 299.852 105.352 300.309 104.203 300.613C103.055 300.918 102.012 301.105 101.074 301.176C100.137 301.246 99.4453 301.281 99 301.281H97.8047C97.3594 301.281 96.668 301.246 95.7305 301.176C94.793 301.105 93.7383 300.918 92.5664 300.613C91.418 300.309 90.2227 299.852 88.9805 299.242C87.7617 298.609 86.6367 297.754 85.6055 296.676C84.5977 295.598 83.7656 294.25 83.1094 292.633C82.4531 291.016 82.125 289.047 82.125 286.727V265.703ZM93.7969 288.062C93.8438 288.93 94.043 289.691 94.3945 290.348C94.6992 290.934 95.1562 291.461 95.7656 291.93C96.3984 292.398 97.2891 292.633 98.4375 292.633C99.5625 292.633 100.43 292.398 101.039 291.93C101.648 291.461 102.105 290.934 102.41 290.348C102.738 289.691 102.938 288.93 103.008 288.062V265.141C102.938 264.297 102.738 263.535 102.41 262.855C102.105 262.293 101.648 261.777 101.039 261.309C100.43 260.816 99.5625 260.57 98.4375 260.57C97.2891 260.57 96.3984 260.816 95.7656 261.309C95.1562 261.777 94.6992 262.293 94.3945 262.855C94.043 263.535 93.8438 264.297 93.7969 265.141V288.062ZM123.047 259.797C123.047 258.789 123.094 257.805 123.188 256.844C123.281 255.883 123.504 255.027 123.855 254.277C124.207 253.527 124.734 252.93 125.438 252.484C126.141 252.016 127.102 251.781 128.32 251.781C129.562 251.781 130.547 252.016 131.273 252.484C132 252.93 132.539 253.527 132.891 254.277C133.266 255.027 133.5 255.883 133.594 256.844C133.688 257.805 133.734 258.789 133.734 259.797V272.453H137.742C138.516 270.438 139.289 268.457 140.062 266.512C140.391 265.691 140.73 264.848 141.082 263.98C141.434 263.09 141.773 262.223 142.102 261.379C142.453 260.535 142.781 259.727 143.086 258.953C143.414 258.156 143.719 257.453 144 256.844C144.281 256.188 144.574 255.555 144.879 254.945C145.207 254.336 145.582 253.797 146.004 253.328C146.426 252.859 146.895 252.484 147.41 252.203C147.949 251.922 148.57 251.781 149.273 251.781C149.953 251.781 150.621 251.887 151.277 252.098C151.934 252.309 152.52 252.625 153.035 253.047C153.551 253.469 153.961 253.984 154.266 254.594C154.594 255.203 154.758 255.906 154.758 256.703C154.758 257.312 154.652 258.039 154.441 258.883C154.254 259.703 153.984 260.523 153.633 261.344L147.305 276.32C148.523 276.766 149.602 277.492 150.539 278.5C150.938 278.922 151.324 279.438 151.699 280.047C152.098 280.633 152.449 281.324 152.754 282.121C153.059 282.918 153.305 283.832 153.492 284.863C153.68 285.871 153.773 287.008 153.773 288.273V293.266C153.773 293.523 153.867 293.734 154.055 293.898C154.242 294.062 154.43 294.25 154.617 294.461C155.086 295 155.355 295.469 155.426 295.867C155.496 296.266 155.531 296.594 155.531 296.852C155.531 297.695 155.367 298.398 155.039 298.961C154.734 299.523 154.312 299.98 153.773 300.332C153.258 300.684 152.648 300.93 151.945 301.07C151.266 301.211 150.562 301.281 149.836 301.281C149.062 301.281 148.277 301.164 147.48 300.93C146.684 300.695 145.957 300.344 145.301 299.875C144.645 299.383 144.105 298.773 143.684 298.047C143.285 297.32 143.086 296.477 143.086 295.516V288.273C143.086 287.266 143.016 286.328 142.875 285.461C142.734 284.57 142.465 283.809 142.066 283.176C141.668 282.52 141.117 282.016 140.414 281.664C139.711 281.289 138.797 281.102 137.672 281.102H133.734V292.914C133.734 293.945 133.688 294.941 133.594 295.902C133.5 296.863 133.266 297.73 132.891 298.504C132.539 299.254 132 299.863 131.273 300.332C130.547 300.777 129.562 301 128.32 301C127.102 301 126.141 300.777 125.438 300.332C124.734 299.863 124.207 299.254 123.855 298.504C123.504 297.73 123.281 296.863 123.188 295.902C123.094 294.941 123.047 293.945 123.047 292.914V259.797ZM172.266 264.156C172.289 265.141 172.57 266.031 173.109 266.828C173.672 267.602 174.398 268.34 175.289 269.043C176.203 269.746 177.234 270.438 178.383 271.117C179.531 271.773 180.703 272.477 181.898 273.227C183.117 273.953 184.301 274.75 185.449 275.617C186.598 276.484 187.629 277.469 188.543 278.57C189.457 279.672 190.195 280.914 190.758 282.297C191.32 283.68 191.625 285.25 191.672 287.008V287.289C191.672 289.211 191.438 290.887 190.969 292.316C190.5 293.746 189.879 294.977 189.105 296.008C188.332 297.039 187.43 297.895 186.398 298.574C185.367 299.23 184.277 299.758 183.129 300.156C182.004 300.555 180.855 300.836 179.684 301C178.535 301.164 177.445 301.258 176.414 301.281H176.062C174.07 301.281 172.324 301.082 170.824 300.684C169.324 300.285 168.035 299.758 166.957 299.102C165.879 298.422 164.977 297.648 164.25 296.781C163.547 295.914 162.984 295.023 162.562 294.109C162.141 293.172 161.836 292.246 161.648 291.332C161.461 290.418 161.367 289.562 161.367 288.766C161.367 287.945 161.508 287.23 161.789 286.621C162.07 286.012 162.434 285.52 162.879 285.145C163.348 284.746 163.875 284.453 164.461 284.266C165.07 284.078 165.703 283.984 166.359 283.984C166.969 283.984 167.59 284.078 168.223 284.266C168.879 284.453 169.465 284.746 169.98 285.145C170.52 285.52 170.953 286.012 171.281 286.621C171.633 287.207 171.82 287.898 171.844 288.695C171.891 290.453 172.289 291.66 173.039 292.316C173.789 292.949 174.867 293.266 176.273 293.266C176.977 293.242 177.621 293.16 178.207 293.02C178.816 292.855 179.332 292.586 179.754 292.211C180.176 291.812 180.504 291.297 180.738 290.664C180.996 290.008 181.125 289.188 181.125 288.203C181.125 286.984 180.844 285.883 180.281 284.898C179.742 283.914 179.027 283 178.137 282.156C177.246 281.312 176.227 280.516 175.078 279.766C173.93 278.992 172.758 278.23 171.562 277.48C170.367 276.707 169.195 275.91 168.047 275.09C166.922 274.246 165.902 273.332 164.988 272.348C164.074 271.363 163.336 270.273 162.773 269.078C162.234 267.883 161.953 266.523 161.93 265V264.438C161.953 261.93 162.281 259.844 162.914 258.18C163.57 256.516 164.52 255.191 165.762 254.207C167.027 253.223 168.574 252.531 170.402 252.133C172.23 251.711 174.328 251.5 176.695 251.5H177.609C179.766 251.5 181.594 251.734 183.094 252.203C184.594 252.672 185.836 253.27 186.82 253.996C187.828 254.723 188.613 255.543 189.176 256.457C189.762 257.371 190.195 258.273 190.477 259.164C190.758 260.055 190.934 260.887 191.004 261.66C191.074 262.434 191.109 263.055 191.109 263.523C191.109 264.227 190.969 264.871 190.688 265.457C190.43 266.02 190.066 266.5 189.598 266.898C189.152 267.297 188.613 267.613 187.98 267.848C187.371 268.059 186.703 268.164 185.977 268.164C185.414 268.164 184.852 268.059 184.289 267.848C183.727 267.613 183.223 267.32 182.777 266.969C182.332 266.617 181.969 266.219 181.688 265.773C181.406 265.305 181.266 264.836 181.266 264.367C181.266 262.445 180.914 261.109 180.211 260.359C179.531 259.609 178.523 259.234 177.188 259.234C176.555 259.234 175.934 259.27 175.324 259.34C174.738 259.41 174.211 259.609 173.742 259.938C173.297 260.242 172.934 260.723 172.652 261.379C172.395 262.035 172.266 262.961 172.266 264.156Z" fill="#34AAE6"/>
<path d="M209.602 281.594V292.984C209.602 293.992 209.566 294.977 209.496 295.938C209.449 296.898 209.25 297.754 208.898 298.504C208.57 299.254 208.043 299.863 207.316 300.332C206.59 300.777 205.547 301 204.188 301C202.875 301 201.855 300.777 201.129 300.332C200.426 299.863 199.91 299.254 199.582 298.504C199.254 297.754 199.055 296.898 198.984 295.938C198.938 294.977 198.914 293.992 198.914 292.984V259.797C198.914 258.789 198.938 257.805 198.984 256.844C199.055 255.883 199.254 255.027 199.582 254.277C199.91 253.527 200.426 252.93 201.129 252.484C201.855 252.016 202.875 251.781 204.188 251.781H215.789C218.695 251.922 221.297 252.531 223.594 253.609C224.578 254.078 225.527 254.664 226.441 255.367C227.379 256.07 228.211 256.938 228.938 257.969C229.688 258.977 230.285 260.184 230.73 261.59C231.176 262.973 231.398 264.578 231.398 266.406C231.398 268.914 231 271.117 230.203 273.016C229.43 274.891 228.293 276.473 226.793 277.762C225.316 279.027 223.5 279.988 221.344 280.645C219.211 281.277 216.797 281.594 214.102 281.594H209.602ZM214.383 273.227C215.555 273.156 216.609 272.875 217.547 272.383C217.945 272.172 218.332 271.902 218.707 271.574C219.082 271.246 219.422 270.848 219.727 270.379C220.031 269.887 220.266 269.312 220.43 268.656C220.617 268 220.711 267.25 220.711 266.406C220.711 265.609 220.617 264.918 220.43 264.332C220.266 263.723 220.043 263.207 219.762 262.785C219.48 262.34 219.164 261.965 218.812 261.66C218.461 261.355 218.098 261.098 217.723 260.887C216.832 260.441 215.836 260.172 214.734 260.078H209.602V273.227H214.383ZM238.219 259.867C238.219 258.859 238.266 257.875 238.359 256.914C238.453 255.953 238.676 255.098 239.027 254.348C239.402 253.574 239.941 252.953 240.645 252.484C241.348 252.016 242.32 251.781 243.562 251.781C244.898 251.781 245.941 252.016 246.691 252.484C247.441 252.953 247.992 253.574 248.344 254.348C248.695 255.098 248.906 255.953 248.977 256.914C249.07 257.875 249.117 258.859 249.117 259.867V290.664H256.008C256.969 290.664 257.918 290.711 258.855 290.805C259.793 290.898 260.625 291.121 261.352 291.473C262.102 291.824 262.699 292.34 263.145 293.02C263.59 293.699 263.812 294.625 263.812 295.797C263.812 296.992 263.59 297.941 263.145 298.645C262.699 299.324 262.102 299.84 261.352 300.191C260.625 300.543 259.793 300.766 258.855 300.859C257.918 300.953 256.969 301 256.008 301H246.023C244.781 301 243.68 300.953 242.719 300.859C241.758 300.766 240.938 300.543 240.258 300.191C239.602 299.84 239.098 299.324 238.746 298.645C238.395 297.941 238.219 296.992 238.219 295.797V259.867ZM270.984 259.797C270.984 258.789 271.031 257.805 271.125 256.844C271.242 255.883 271.488 255.027 271.863 254.277C272.262 253.527 272.848 252.93 273.621 252.484C274.395 252.016 275.461 251.781 276.82 251.781C278.18 251.781 279.246 252.016 280.02 252.484C280.816 252.93 281.402 253.527 281.777 254.277C282.176 255.027 282.422 255.883 282.516 256.844C282.609 257.805 282.656 258.789 282.656 259.797V287.5C282.727 288.531 282.938 289.445 283.289 290.242C283.43 290.594 283.617 290.934 283.852 291.262C284.086 291.59 284.355 291.883 284.66 292.141C284.988 292.398 285.363 292.609 285.785 292.773C286.23 292.914 286.734 292.984 287.297 292.984C287.859 292.984 288.363 292.914 288.809 292.773C289.254 292.609 289.629 292.398 289.934 292.141C290.262 291.883 290.543 291.59 290.777 291.262C291.012 290.934 291.199 290.594 291.34 290.242C291.691 289.445 291.891 288.531 291.938 287.5V259.797C291.938 258.789 291.984 257.805 292.078 256.844C292.172 255.883 292.406 255.027 292.781 254.277C293.18 253.527 293.766 252.93 294.539 252.484C295.312 252.016 296.391 251.781 297.773 251.781C299.133 251.781 300.199 252.016 300.973 252.484C301.746 252.93 302.32 253.527 302.695 254.277C303.094 255.027 303.34 255.883 303.434 256.844C303.551 257.805 303.609 258.789 303.609 259.797V286.586C303.609 289.023 303.211 291.156 302.414 292.984C301.641 294.812 300.527 296.348 299.074 297.59C297.645 298.809 295.922 299.734 293.906 300.367C291.914 300.977 289.711 301.281 287.297 301.281C284.859 301.281 282.645 300.965 280.652 300.332C278.66 299.676 276.938 298.727 275.484 297.484C274.055 296.242 272.941 294.707 272.145 292.879C271.371 291.051 270.984 288.953 270.984 286.586V259.797ZM322.453 264.156C322.477 265.141 322.758 266.031 323.297 266.828C323.859 267.602 324.586 268.34 325.477 269.043C326.391 269.746 327.422 270.438 328.57 271.117C329.719 271.773 330.891 272.477 332.086 273.227C333.305 273.953 334.488 274.75 335.637 275.617C336.785 276.484 337.816 277.469 338.73 278.57C339.645 279.672 340.383 280.914 340.945 282.297C341.508 283.68 341.812 285.25 341.859 287.008V287.289C341.859 289.211 341.625 290.887 341.156 292.316C340.688 293.746 340.066 294.977 339.293 296.008C338.52 297.039 337.617 297.895 336.586 298.574C335.555 299.23 334.465 299.758 333.316 300.156C332.191 300.555 331.043 300.836 329.871 301C328.723 301.164 327.633 301.258 326.602 301.281H326.25C324.258 301.281 322.512 301.082 321.012 300.684C319.512 300.285 318.223 299.758 317.145 299.102C316.066 298.422 315.164 297.648 314.438 296.781C313.734 295.914 313.172 295.023 312.75 294.109C312.328 293.172 312.023 292.246 311.836 291.332C311.648 290.418 311.555 289.562 311.555 288.766C311.555 287.945 311.695 287.23 311.977 286.621C312.258 286.012 312.621 285.52 313.066 285.145C313.535 284.746 314.062 284.453 314.648 284.266C315.258 284.078 315.891 283.984 316.547 283.984C317.156 283.984 317.777 284.078 318.41 284.266C319.066 284.453 319.652 284.746 320.168 285.145C320.707 285.52 321.141 286.012 321.469 286.621C321.82 287.207 322.008 287.898 322.031 288.695C322.078 290.453 322.477 291.66 323.227 292.316C323.977 292.949 325.055 293.266 326.461 293.266C327.164 293.242 327.809 293.16 328.395 293.02C329.004 292.855 329.52 292.586 329.941 292.211C330.363 291.812 330.691 291.297 330.926 290.664C331.184 290.008 331.312 289.188 331.312 288.203C331.312 286.984 331.031 285.883 330.469 284.898C329.93 283.914 329.215 283 328.324 282.156C327.434 281.312 326.414 280.516 325.266 279.766C324.117 278.992 322.945 278.23 321.75 277.48C320.555 276.707 319.383 275.91 318.234 275.09C317.109 274.246 316.09 273.332 315.176 272.348C314.262 271.363 313.523 270.273 312.961 269.078C312.422 267.883 312.141 266.523 312.117 265V264.438C312.141 261.93 312.469 259.844 313.102 258.18C313.758 256.516 314.707 255.191 315.949 254.207C317.215 253.223 318.762 252.531 320.59 252.133C322.418 251.711 324.516 251.5 326.883 251.5H327.797C329.953 251.5 331.781 251.734 333.281 252.203C334.781 252.672 336.023 253.27 337.008 253.996C338.016 254.723 338.801 255.543 339.363 256.457C339.949 257.371 340.383 258.273 340.664 259.164C340.945 260.055 341.121 260.887 341.191 261.66C341.262 262.434 341.297 263.055 341.297 263.523C341.297 264.227 341.156 264.871 340.875 265.457C340.617 266.02 340.254 266.5 339.785 266.898C339.34 267.297 338.801 267.613 338.168 267.848C337.559 268.059 336.891 268.164 336.164 268.164C335.602 268.164 335.039 268.059 334.477 267.848C333.914 267.613 333.41 267.32 332.965 266.969C332.52 266.617 332.156 266.219 331.875 265.773C331.594 265.305 331.453 264.836 331.453 264.367C331.453 262.445 331.102 261.109 330.398 260.359C329.719 259.609 328.711 259.234 327.375 259.234C326.742 259.234 326.121 259.27 325.512 259.34C324.926 259.41 324.398 259.609 323.93 259.938C323.484 260.242 323.121 260.723 322.84 261.379C322.582 262.035 322.453 262.961 322.453 264.156Z" fill="#206DB1"/>
</svg>
