<svg width="347" height="307" viewBox="0 0 347 307" fill="none" xmlns="http://www.w3.org/2000/svg">
<path fill-rule="evenodd" clip-rule="evenodd" d="M347 44L284.179 111.5L347 179H2V44H347Z" fill="#F7A300"/>
<rect x="106.643" y="133.929" width="44.6429" height="44.6429" fill="#E49629"/>
<rect x="106.643" y="133.929" width="44.6429" height="44.6429" fill="#E49629"/>
<rect x="106.643" y="133.929" width="44.6429" height="44.6429" fill="#206DB1"/>
<rect x="62" y="89.2857" width="44.6429" height="44.6429" fill="#E49629"/>
<rect x="62" y="89.2857" width="44.6429" height="44.6429" fill="#E49629"/>
<rect x="62" y="89.2857" width="44.6429" height="44.6429" fill="#206DB1"/>
<rect x="106.643" y="89.2857" width="44.6429" height="44.6429" fill="#E49629"/>
<rect x="106.643" y="89.2857" width="44.6429" height="44.6429" fill="#E49629"/>
<rect x="106.643" y="89.2857" width="44.6429" height="44.6429" fill="#206DB1"/>
<rect x="106.643" y="44.6429" width="44.6429" height="44.6429" fill="#E49629"/>
<rect x="106.643" y="44.6429" width="44.6429" height="44.6429" fill="#E49629"/>
<rect x="106.643" y="44.6429" width="44.6429" height="44.6429" fill="#206DB1"/>
<rect x="151.286" y="89.2857" width="44.6429" height="44.6429" fill="#E49629"/>
<rect x="151.286" y="89.2857" width="44.6429" height="44.6429" fill="#E49629"/>
<rect x="151.286" y="89.2857" width="44.6429" height="44.6429" fill="#206DB1"/>
<rect x="151.286" y="178.571" width="44.6429" height="44.6429" fill="#E49629"/>
<rect x="151.286" y="178.571" width="44.6429" height="44.6429" fill="#E49629"/>
<rect x="151.286" y="178.571" width="44.6429" height="44.6429" fill="#34AAE6"/>
<rect x="151.286" width="44.6429" height="44.6429" fill="#E49629"/>
<rect x="151.286" width="44.6429" height="44.6429" fill="#E49629"/>
<rect x="151.286" width="44.6429" height="44.6429" fill="#34AAE6"/>
<path d="M106.643 30C106.643 13.4315 120.074 0 136.643 0H151.286V44.6429H106.643V30Z" fill="#E49629"/>
<path d="M106.643 30C106.643 13.4315 120.074 0 136.643 0H151.286V44.6429H106.643V30Z" fill="#E49629"/>
<path d="M106.643 30C106.643 13.4315 120.074 0 136.643 0H151.286V44.6429H106.643V30Z" fill="#34AAE6"/>
<path d="M106.643 193.214C106.643 209.783 120.074 223.214 136.643 223.214H151.286V178.571H106.643V193.214Z" fill="#E49629"/>
<path d="M106.643 193.214C106.643 209.783 120.074 223.214 136.643 223.214H151.286V178.571H106.643V193.214Z" fill="#E49629"/>
<path d="M106.643 193.214C106.643 209.783 120.074 223.214 136.643 223.214H151.286V178.571H106.643V193.214Z" fill="#34AAE6"/>
<path fill-rule="evenodd" clip-rule="evenodd" d="M195.929 223.203C232.5 222.725 262 192.929 262 156.244C262 119.559 232.5 89.7636 195.929 89.2857V133.94C207.842 134.409 217.357 144.215 217.357 156.244C217.357 168.273 207.842 178.079 195.929 178.548V223.203Z" fill="#34AAE6"/>
<path fill-rule="evenodd" clip-rule="evenodd" d="M195.929 133.917C232.5 133.439 262 103.644 262 66.9585C262 30.2732 232.5 0.477894 195.929 0V44.6546C207.842 45.1232 217.357 54.9297 217.357 66.9585C217.357 78.9872 207.842 88.7937 195.929 89.2623V133.917Z" fill="#34AAE6"/>
<path d="M19.7578 256.781C21.8438 256.781 23.8008 257.051 25.6289 257.59C27.4805 258.129 29.0859 258.938 30.4453 260.016C31.8281 261.094 32.9062 262.441 33.6797 264.059C34.4766 265.652 34.875 267.516 34.875 269.648C34.875 270.75 34.7227 271.758 34.418 272.672C34.1367 273.562 33.7617 274.371 33.293 275.098C32.8477 275.824 32.3438 276.457 31.7812 276.996C31.2422 277.535 30.7148 278.004 30.1992 278.402C29.6836 278.777 29.2266 279.082 28.8281 279.316C28.4297 279.527 28.1484 279.656 27.9844 279.703C29.3906 280.102 30.5742 280.617 31.5352 281.25C32.4961 281.859 33.293 282.539 33.9258 283.289C34.582 284.016 35.0859 284.777 35.4375 285.574C35.8125 286.348 36.082 287.109 36.2461 287.859C36.4336 288.586 36.5391 289.266 36.5625 289.898C36.6094 290.508 36.6328 291 36.6328 291.375C36.6328 293.203 36.4102 294.82 35.9648 296.227C35.5195 297.609 34.9336 298.816 34.207 299.848C33.4805 300.855 32.6484 301.723 31.7109 302.449C30.7734 303.152 29.8242 303.727 28.8633 304.172C26.5664 305.25 23.9766 305.859 21.0938 306H9.5625C8.22656 306 7.19531 305.777 6.46875 305.332C5.74219 304.863 5.21484 304.254 4.88672 303.504C4.55859 302.73 4.35938 301.863 4.28906 300.902C4.24219 299.941 4.21875 298.945 4.21875 297.914V264.797C4.21875 263.789 4.24219 262.805 4.28906 261.844C4.35938 260.883 4.55859 260.027 4.88672 259.277C5.21484 258.527 5.74219 257.93 6.46875 257.484C7.19531 257.016 8.22656 256.781 9.5625 256.781H19.7578ZM14.9062 284.484V297.703H20.0391C21.1406 297.656 22.125 297.398 22.9922 296.93C23.3672 296.742 23.7305 296.496 24.082 296.191C24.4336 295.887 24.75 295.512 25.0312 295.066C25.3125 294.598 25.5352 294.07 25.6992 293.484C25.8633 292.875 25.9453 292.172 25.9453 291.375C25.9453 290.508 25.8516 289.758 25.6641 289.125C25.5 288.469 25.2656 287.906 24.9609 287.438C24.6797 286.945 24.3516 286.535 23.9766 286.207C23.6016 285.855 23.2266 285.574 22.8516 285.363C21.9375 284.871 20.9062 284.578 19.7578 284.484H14.9062ZM14.9062 265.078V277.031H19.4062C20.4141 276.984 21.3164 276.75 22.1133 276.328C22.4414 276.164 22.7695 275.941 23.0977 275.66C23.4258 275.379 23.7188 275.051 23.9766 274.676C24.2344 274.277 24.4336 273.809 24.5742 273.27C24.7383 272.73 24.8203 272.109 24.8203 271.406C24.8203 270.609 24.7383 269.918 24.5742 269.332C24.4102 268.723 24.1875 268.207 23.9062 267.785C23.6484 267.34 23.3438 266.965 22.9922 266.66C22.6641 266.355 22.3242 266.098 21.9727 265.887C21.1289 265.441 20.1797 265.172 19.125 265.078H14.9062ZM42.4688 270.703C42.4688 268.453 42.7969 266.543 43.4531 264.973C44.1094 263.379 44.9414 262.055 45.9492 261C46.9805 259.945 48.1055 259.125 49.3242 258.539C50.5664 257.93 51.7617 257.473 52.9102 257.168C54.082 256.863 55.1367 256.676 56.0742 256.605C57.0117 256.535 57.7031 256.5 58.1484 256.5H59.3438C59.7891 256.5 60.4805 256.535 61.418 256.605C62.3555 256.676 63.3984 256.863 64.5469 257.168C65.6953 257.473 66.8789 257.93 68.0977 258.539C69.3398 259.125 70.4531 259.945 71.4375 261C72.4453 262.055 73.2656 263.379 73.8984 264.973C74.5547 266.543 74.8828 268.453 74.8828 270.703V291.727C74.8828 294.047 74.5547 296.016 73.8984 297.633C73.2656 299.25 72.4453 300.598 71.4375 301.676C70.4531 302.754 69.3398 303.609 68.0977 304.242C66.8789 304.852 65.6953 305.309 64.5469 305.613C63.3984 305.918 62.3555 306.105 61.418 306.176C60.4805 306.246 59.7891 306.281 59.3438 306.281H58.1484C57.7031 306.281 57.0117 306.246 56.0742 306.176C55.1367 306.105 54.082 305.918 52.9102 305.613C51.7617 305.309 50.5664 304.852 49.3242 304.242C48.1055 303.609 46.9805 302.754 45.9492 301.676C44.9414 300.598 44.1094 299.25 43.4531 297.633C42.7969 296.016 42.4688 294.047 42.4688 291.727V270.703ZM54.1406 293.062C54.1875 293.93 54.3867 294.691 54.7383 295.348C55.043 295.934 55.5 296.461 56.1094 296.93C56.7422 297.398 57.6328 297.633 58.7812 297.633C59.9062 297.633 60.7734 297.398 61.3828 296.93C61.9922 296.461 62.4492 295.934 62.7539 295.348C63.082 294.691 63.2812 293.93 63.3516 293.062V270.141C63.2812 269.297 63.082 268.535 62.7539 267.855C62.4492 267.293 61.9922 266.777 61.3828 266.309C60.7734 265.816 59.9062 265.57 58.7812 265.57C57.6328 265.57 56.7422 265.816 56.1094 266.309C55.5 266.777 55.043 267.293 54.7383 267.855C54.3867 268.535 54.1875 269.297 54.1406 270.141V293.062ZM82.125 270.703C82.125 268.453 82.4531 266.543 83.1094 264.973C83.7656 263.379 84.5977 262.055 85.6055 261C86.6367 259.945 87.7617 259.125 88.9805 258.539C90.2227 257.93 91.418 257.473 92.5664 257.168C93.7383 256.863 94.793 256.676 95.7305 256.605C96.668 256.535 97.3594 256.5 97.8047 256.5H99C99.4453 256.5 100.137 256.535 101.074 256.605C102.012 256.676 103.055 256.863 104.203 257.168C105.352 257.473 106.535 257.93 107.754 258.539C108.996 259.125 110.109 259.945 111.094 261C112.102 262.055 112.922 263.379 113.555 264.973C114.211 266.543 114.539 268.453 114.539 270.703V291.727C114.539 294.047 114.211 296.016 113.555 297.633C112.922 299.25 112.102 300.598 111.094 301.676C110.109 302.754 108.996 303.609 107.754 304.242C106.535 304.852 105.352 305.309 104.203 305.613C103.055 305.918 102.012 306.105 101.074 306.176C100.137 306.246 99.4453 306.281 99 306.281H97.8047C97.3594 306.281 96.668 306.246 95.7305 306.176C94.793 306.105 93.7383 305.918 92.5664 305.613C91.418 305.309 90.2227 304.852 88.9805 304.242C87.7617 303.609 86.6367 302.754 85.6055 301.676C84.5977 300.598 83.7656 299.25 83.1094 297.633C82.4531 296.016 82.125 294.047 82.125 291.727V270.703ZM93.7969 293.062C93.8438 293.93 94.043 294.691 94.3945 295.348C94.6992 295.934 95.1562 296.461 95.7656 296.93C96.3984 297.398 97.2891 297.633 98.4375 297.633C99.5625 297.633 100.43 297.398 101.039 296.93C101.648 296.461 102.105 295.934 102.41 295.348C102.738 294.691 102.938 293.93 103.008 293.062V270.141C102.938 269.297 102.738 268.535 102.41 267.855C102.105 267.293 101.648 266.777 101.039 266.309C100.43 265.816 99.5625 265.57 98.4375 265.57C97.2891 265.57 96.3984 265.816 95.7656 266.309C95.1562 266.777 94.6992 267.293 94.3945 267.855C94.043 268.535 93.8438 269.297 93.7969 270.141V293.062ZM123.047 264.797C123.047 263.789 123.094 262.805 123.188 261.844C123.281 260.883 123.504 260.027 123.855 259.277C124.207 258.527 124.734 257.93 125.438 257.484C126.141 257.016 127.102 256.781 128.32 256.781C129.562 256.781 130.547 257.016 131.273 257.484C132 257.93 132.539 258.527 132.891 259.277C133.266 260.027 133.5 260.883 133.594 261.844C133.688 262.805 133.734 263.789 133.734 264.797V277.453H137.742C138.516 275.438 139.289 273.457 140.062 271.512C140.391 270.691 140.73 269.848 141.082 268.98C141.434 268.09 141.773 267.223 142.102 266.379C142.453 265.535 142.781 264.727 143.086 263.953C143.414 263.156 143.719 262.453 144 261.844C144.281 261.188 144.574 260.555 144.879 259.945C145.207 259.336 145.582 258.797 146.004 258.328C146.426 257.859 146.895 257.484 147.41 257.203C147.949 256.922 148.57 256.781 149.273 256.781C149.953 256.781 150.621 256.887 151.277 257.098C151.934 257.309 152.52 257.625 153.035 258.047C153.551 258.469 153.961 258.984 154.266 259.594C154.594 260.203 154.758 260.906 154.758 261.703C154.758 262.312 154.652 263.039 154.441 263.883C154.254 264.703 153.984 265.523 153.633 266.344L147.305 281.32C148.523 281.766 149.602 282.492 150.539 283.5C150.938 283.922 151.324 284.438 151.699 285.047C152.098 285.633 152.449 286.324 152.754 287.121C153.059 287.918 153.305 288.832 153.492 289.863C153.68 290.871 153.773 292.008 153.773 293.273V298.266C153.773 298.523 153.867 298.734 154.055 298.898C154.242 299.062 154.43 299.25 154.617 299.461C155.086 300 155.355 300.469 155.426 300.867C155.496 301.266 155.531 301.594 155.531 301.852C155.531 302.695 155.367 303.398 155.039 303.961C154.734 304.523 154.312 304.98 153.773 305.332C153.258 305.684 152.648 305.93 151.945 306.07C151.266 306.211 150.562 306.281 149.836 306.281C149.062 306.281 148.277 306.164 147.48 305.93C146.684 305.695 145.957 305.344 145.301 304.875C144.645 304.383 144.105 303.773 143.684 303.047C143.285 302.32 143.086 301.477 143.086 300.516V293.273C143.086 292.266 143.016 291.328 142.875 290.461C142.734 289.57 142.465 288.809 142.066 288.176C141.668 287.52 141.117 287.016 140.414 286.664C139.711 286.289 138.797 286.102 137.672 286.102H133.734V297.914C133.734 298.945 133.688 299.941 133.594 300.902C133.5 301.863 133.266 302.73 132.891 303.504C132.539 304.254 132 304.863 131.273 305.332C130.547 305.777 129.562 306 128.32 306C127.102 306 126.141 305.777 125.438 305.332C124.734 304.863 124.207 304.254 123.855 303.504C123.504 302.73 123.281 301.863 123.188 300.902C123.094 299.941 123.047 298.945 123.047 297.914V264.797ZM172.266 269.156C172.289 270.141 172.57 271.031 173.109 271.828C173.672 272.602 174.398 273.34 175.289 274.043C176.203 274.746 177.234 275.438 178.383 276.117C179.531 276.773 180.703 277.477 181.898 278.227C183.117 278.953 184.301 279.75 185.449 280.617C186.598 281.484 187.629 282.469 188.543 283.57C189.457 284.672 190.195 285.914 190.758 287.297C191.32 288.68 191.625 290.25 191.672 292.008V292.289C191.672 294.211 191.438 295.887 190.969 297.316C190.5 298.746 189.879 299.977 189.105 301.008C188.332 302.039 187.43 302.895 186.398 303.574C185.367 304.23 184.277 304.758 183.129 305.156C182.004 305.555 180.855 305.836 179.684 306C178.535 306.164 177.445 306.258 176.414 306.281H176.062C174.07 306.281 172.324 306.082 170.824 305.684C169.324 305.285 168.035 304.758 166.957 304.102C165.879 303.422 164.977 302.648 164.25 301.781C163.547 300.914 162.984 300.023 162.562 299.109C162.141 298.172 161.836 297.246 161.648 296.332C161.461 295.418 161.367 294.562 161.367 293.766C161.367 292.945 161.508 292.23 161.789 291.621C162.07 291.012 162.434 290.52 162.879 290.145C163.348 289.746 163.875 289.453 164.461 289.266C165.07 289.078 165.703 288.984 166.359 288.984C166.969 288.984 167.59 289.078 168.223 289.266C168.879 289.453 169.465 289.746 169.98 290.145C170.52 290.52 170.953 291.012 171.281 291.621C171.633 292.207 171.82 292.898 171.844 293.695C171.891 295.453 172.289 296.66 173.039 297.316C173.789 297.949 174.867 298.266 176.273 298.266C176.977 298.242 177.621 298.16 178.207 298.02C178.816 297.855 179.332 297.586 179.754 297.211C180.176 296.812 180.504 296.297 180.738 295.664C180.996 295.008 181.125 294.188 181.125 293.203C181.125 291.984 180.844 290.883 180.281 289.898C179.742 288.914 179.027 288 178.137 287.156C177.246 286.312 176.227 285.516 175.078 284.766C173.93 283.992 172.758 283.23 171.562 282.48C170.367 281.707 169.195 280.91 168.047 280.09C166.922 279.246 165.902 278.332 164.988 277.348C164.074 276.363 163.336 275.273 162.773 274.078C162.234 272.883 161.953 271.523 161.93 270V269.438C161.953 266.93 162.281 264.844 162.914 263.18C163.57 261.516 164.52 260.191 165.762 259.207C167.027 258.223 168.574 257.531 170.402 257.133C172.23 256.711 174.328 256.5 176.695 256.5H177.609C179.766 256.5 181.594 256.734 183.094 257.203C184.594 257.672 185.836 258.27 186.82 258.996C187.828 259.723 188.613 260.543 189.176 261.457C189.762 262.371 190.195 263.273 190.477 264.164C190.758 265.055 190.934 265.887 191.004 266.66C191.074 267.434 191.109 268.055 191.109 268.523C191.109 269.227 190.969 269.871 190.688 270.457C190.43 271.02 190.066 271.5 189.598 271.898C189.152 272.297 188.613 272.613 187.98 272.848C187.371 273.059 186.703 273.164 185.977 273.164C185.414 273.164 184.852 273.059 184.289 272.848C183.727 272.613 183.223 272.32 182.777 271.969C182.332 271.617 181.969 271.219 181.688 270.773C181.406 270.305 181.266 269.836 181.266 269.367C181.266 267.445 180.914 266.109 180.211 265.359C179.531 264.609 178.523 264.234 177.188 264.234C176.555 264.234 175.934 264.27 175.324 264.34C174.738 264.41 174.211 264.609 173.742 264.938C173.297 265.242 172.934 265.723 172.652 266.379C172.395 267.035 172.266 267.961 172.266 269.156Z" fill="#34AAE6"/>
<path d="M209.602 286.594V297.984C209.602 298.992 209.566 299.977 209.496 300.938C209.449 301.898 209.25 302.754 208.898 303.504C208.57 304.254 208.043 304.863 207.316 305.332C206.59 305.777 205.547 306 204.188 306C202.875 306 201.855 305.777 201.129 305.332C200.426 304.863 199.91 304.254 199.582 303.504C199.254 302.754 199.055 301.898 198.984 300.938C198.938 299.977 198.914 298.992 198.914 297.984V264.797C198.914 263.789 198.938 262.805 198.984 261.844C199.055 260.883 199.254 260.027 199.582 259.277C199.91 258.527 200.426 257.93 201.129 257.484C201.855 257.016 202.875 256.781 204.188 256.781H215.789C218.695 256.922 221.297 257.531 223.594 258.609C224.578 259.078 225.527 259.664 226.441 260.367C227.379 261.07 228.211 261.938 228.938 262.969C229.688 263.977 230.285 265.184 230.73 266.59C231.176 267.973 231.398 269.578 231.398 271.406C231.398 273.914 231 276.117 230.203 278.016C229.43 279.891 228.293 281.473 226.793 282.762C225.316 284.027 223.5 284.988 221.344 285.645C219.211 286.277 216.797 286.594 214.102 286.594H209.602ZM214.383 278.227C215.555 278.156 216.609 277.875 217.547 277.383C217.945 277.172 218.332 276.902 218.707 276.574C219.082 276.246 219.422 275.848 219.727 275.379C220.031 274.887 220.266 274.312 220.43 273.656C220.617 273 220.711 272.25 220.711 271.406C220.711 270.609 220.617 269.918 220.43 269.332C220.266 268.723 220.043 268.207 219.762 267.785C219.48 267.34 219.164 266.965 218.812 266.66C218.461 266.355 218.098 266.098 217.723 265.887C216.832 265.441 215.836 265.172 214.734 265.078H209.602V278.227H214.383ZM238.219 264.867C238.219 263.859 238.266 262.875 238.359 261.914C238.453 260.953 238.676 260.098 239.027 259.348C239.402 258.574 239.941 257.953 240.645 257.484C241.348 257.016 242.32 256.781 243.562 256.781C244.898 256.781 245.941 257.016 246.691 257.484C247.441 257.953 247.992 258.574 248.344 259.348C248.695 260.098 248.906 260.953 248.977 261.914C249.07 262.875 249.117 263.859 249.117 264.867V295.664H256.008C256.969 295.664 257.918 295.711 258.855 295.805C259.793 295.898 260.625 296.121 261.352 296.473C262.102 296.824 262.699 297.34 263.145 298.02C263.59 298.699 263.812 299.625 263.812 300.797C263.812 301.992 263.59 302.941 263.145 303.645C262.699 304.324 262.102 304.84 261.352 305.191C260.625 305.543 259.793 305.766 258.855 305.859C257.918 305.953 256.969 306 256.008 306H246.023C244.781 306 243.68 305.953 242.719 305.859C241.758 305.766 240.938 305.543 240.258 305.191C239.602 304.84 239.098 304.324 238.746 303.645C238.395 302.941 238.219 301.992 238.219 300.797V264.867ZM270.984 264.797C270.984 263.789 271.031 262.805 271.125 261.844C271.242 260.883 271.488 260.027 271.863 259.277C272.262 258.527 272.848 257.93 273.621 257.484C274.395 257.016 275.461 256.781 276.82 256.781C278.18 256.781 279.246 257.016 280.02 257.484C280.816 257.93 281.402 258.527 281.777 259.277C282.176 260.027 282.422 260.883 282.516 261.844C282.609 262.805 282.656 263.789 282.656 264.797V292.5C282.727 293.531 282.938 294.445 283.289 295.242C283.43 295.594 283.617 295.934 283.852 296.262C284.086 296.59 284.355 296.883 284.66 297.141C284.988 297.398 285.363 297.609 285.785 297.773C286.23 297.914 286.734 297.984 287.297 297.984C287.859 297.984 288.363 297.914 288.809 297.773C289.254 297.609 289.629 297.398 289.934 297.141C290.262 296.883 290.543 296.59 290.777 296.262C291.012 295.934 291.199 295.594 291.34 295.242C291.691 294.445 291.891 293.531 291.938 292.5V264.797C291.938 263.789 291.984 262.805 292.078 261.844C292.172 260.883 292.406 260.027 292.781 259.277C293.18 258.527 293.766 257.93 294.539 257.484C295.312 257.016 296.391 256.781 297.773 256.781C299.133 256.781 300.199 257.016 300.973 257.484C301.746 257.93 302.32 258.527 302.695 259.277C303.094 260.027 303.34 260.883 303.434 261.844C303.551 262.805 303.609 263.789 303.609 264.797V291.586C303.609 294.023 303.211 296.156 302.414 297.984C301.641 299.812 300.527 301.348 299.074 302.59C297.645 303.809 295.922 304.734 293.906 305.367C291.914 305.977 289.711 306.281 287.297 306.281C284.859 306.281 282.645 305.965 280.652 305.332C278.66 304.676 276.938 303.727 275.484 302.484C274.055 301.242 272.941 299.707 272.145 297.879C271.371 296.051 270.984 293.953 270.984 291.586V264.797ZM322.453 269.156C322.477 270.141 322.758 271.031 323.297 271.828C323.859 272.602 324.586 273.34 325.477 274.043C326.391 274.746 327.422 275.438 328.57 276.117C329.719 276.773 330.891 277.477 332.086 278.227C333.305 278.953 334.488 279.75 335.637 280.617C336.785 281.484 337.816 282.469 338.73 283.57C339.645 284.672 340.383 285.914 340.945 287.297C341.508 288.68 341.812 290.25 341.859 292.008V292.289C341.859 294.211 341.625 295.887 341.156 297.316C340.688 298.746 340.066 299.977 339.293 301.008C338.52 302.039 337.617 302.895 336.586 303.574C335.555 304.23 334.465 304.758 333.316 305.156C332.191 305.555 331.043 305.836 329.871 306C328.723 306.164 327.633 306.258 326.602 306.281H326.25C324.258 306.281 322.512 306.082 321.012 305.684C319.512 305.285 318.223 304.758 317.145 304.102C316.066 303.422 315.164 302.648 314.438 301.781C313.734 300.914 313.172 300.023 312.75 299.109C312.328 298.172 312.023 297.246 311.836 296.332C311.648 295.418 311.555 294.562 311.555 293.766C311.555 292.945 311.695 292.23 311.977 291.621C312.258 291.012 312.621 290.52 313.066 290.145C313.535 289.746 314.062 289.453 314.648 289.266C315.258 289.078 315.891 288.984 316.547 288.984C317.156 288.984 317.777 289.078 318.41 289.266C319.066 289.453 319.652 289.746 320.168 290.145C320.707 290.52 321.141 291.012 321.469 291.621C321.82 292.207 322.008 292.898 322.031 293.695C322.078 295.453 322.477 296.66 323.227 297.316C323.977 297.949 325.055 298.266 326.461 298.266C327.164 298.242 327.809 298.16 328.395 298.02C329.004 297.855 329.52 297.586 329.941 297.211C330.363 296.812 330.691 296.297 330.926 295.664C331.184 295.008 331.312 294.188 331.312 293.203C331.312 291.984 331.031 290.883 330.469 289.898C329.93 288.914 329.215 288 328.324 287.156C327.434 286.312 326.414 285.516 325.266 284.766C324.117 283.992 322.945 283.23 321.75 282.48C320.555 281.707 319.383 280.91 318.234 280.09C317.109 279.246 316.09 278.332 315.176 277.348C314.262 276.363 313.523 275.273 312.961 274.078C312.422 272.883 312.141 271.523 312.117 270V269.438C312.141 266.93 312.469 264.844 313.102 263.18C313.758 261.516 314.707 260.191 315.949 259.207C317.215 258.223 318.762 257.531 320.59 257.133C322.418 256.711 324.516 256.5 326.883 256.5H327.797C329.953 256.5 331.781 256.734 333.281 257.203C334.781 257.672 336.023 258.27 337.008 258.996C338.016 259.723 338.801 260.543 339.363 261.457C339.949 262.371 340.383 263.273 340.664 264.164C340.945 265.055 341.121 265.887 341.191 266.66C341.262 267.434 341.297 268.055 341.297 268.523C341.297 269.227 341.156 269.871 340.875 270.457C340.617 271.02 340.254 271.5 339.785 271.898C339.34 272.297 338.801 272.613 338.168 272.848C337.559 273.059 336.891 273.164 336.164 273.164C335.602 273.164 335.039 273.059 334.477 272.848C333.914 272.613 333.41 272.32 332.965 271.969C332.52 271.617 332.156 271.219 331.875 270.773C331.594 270.305 331.453 269.836 331.453 269.367C331.453 267.445 331.102 266.109 330.398 265.359C329.719 264.609 328.711 264.234 327.375 264.234C326.742 264.234 326.121 264.27 325.512 264.34C324.926 264.41 324.398 264.609 323.93 264.938C323.484 265.242 323.121 265.723 322.84 266.379C322.582 267.035 322.453 267.961 322.453 269.156Z" fill="#206DB1"/>
</svg>
